<svg xmlns="http://www.w3.org/2000/svg" width="44" height="50" fill="none" viewBox="0 0 44 50">
    <g clip-path="url(#clip0)">
        <path fill="#FCFDFD" d="M37.197 9.482c-4.092-4.101-9.54-6.357-15.332-6.357-11.953 0-21.68 9.727-21.68 21.68 0 3.818.997 7.548 2.891 10.84L0 46.874l11.494-3.018c3.164 1.729 6.729 2.637 10.361 2.637h.01c11.944 0 21.885-9.726 21.885-21.68 0-5.79-2.46-11.23-6.553-15.332zm-15.332 33.36c-3.242 0-6.416-.87-9.18-2.51l-.654-.39-6.816 1.786 1.816-6.65-.43-.684c-1.806-2.87-2.753-6.181-2.753-9.59 0-9.931 8.086-18.017 18.027-18.017 4.814 0 9.336 1.875 12.734 5.283 3.399 3.409 5.489 7.93 5.479 12.744 0 9.942-8.291 18.028-18.223 18.028zm9.883-13.496c-.537-.274-3.203-1.582-3.701-1.758-.498-.186-.86-.274-1.22.273-.362.547-1.397 1.758-1.72 2.13-.312.36-.634.41-1.171.136-3.184-1.592-5.274-2.842-7.373-6.445-.557-.957.556-.889 1.591-2.96.176-.36.088-.673-.049-.947-.136-.273-1.22-2.94-1.67-4.023-.439-1.055-.888-.908-1.22-.928-.313-.02-.674-.02-1.035-.02-.362 0-.948.137-1.446.675-.498.546-1.894 1.855-1.894 4.521s1.943 5.244 2.207 5.605c.273.362 3.818 5.83 9.258 8.184 3.437 1.484 4.785 1.611 6.504 1.358 1.044-.157 3.203-1.31 3.652-2.579.45-1.27.45-2.353.312-2.578-.127-.244-.488-.38-1.025-.644z"/>
    </g>
    <defs>
        <clipPath id="clip0">
            <path fill="#fff" d="M0 0H43.75V50H0z"/>
        </clipPath>
    </defs>
</svg>
