<svg xmlns="http://www.w3.org/2000/svg" width="20" height="20" fill="none" viewBox="0 0 20 20">
    <path fill="#000" d="M10.357 20c-2.747 0-5.381-1.091-7.323-3.034C1.09 15.024 0 12.39 0 9.643 0 5.447 2.41 1.684 6.143.059c.132-.057.278-.073.419-.047.14.027.27.096.372.197.101.102.17.231.196.372.027.141.01.287-.047.419-.428.984-.654 2.244-.654 3.643 0 4.923 4.005 8.929 8.928 8.929 1.4 0 2.66-.227 3.643-.655.132-.058.278-.074.419-.047.14.026.27.095.372.196.101.102.17.231.197.372.026.141.01.287-.047.419C18.316 17.589 14.553 20 10.357 20z"/>
</svg>
