<svg xmlns="http://www.w3.org/2000/svg" width="25" height="24" fill="none" viewBox="0 0 25 24">
    <path fill="#fff" d="M0 0H24.313V24H0z" transform="translate(.208)"/>
    <path fill="#4285F4" fill-rule="evenodd" d="M23.248 12.261c0-.815-.073-1.6-.209-2.352H12.21v4.449h6.189c-.267 1.437-1.077 2.655-2.295 3.47v2.886h3.716c2.175-2.002 3.43-4.95 3.43-8.452z" clip-rule="evenodd"/>
    <path fill="#34A853" fill-rule="evenodd" d="M12.209 23.5c3.104 0 5.708-1.03 7.61-2.786l-3.716-2.886c-1.03.69-2.347 1.098-3.895 1.098-2.995 0-5.53-2.023-6.434-4.74H1.932v2.979C3.824 20.923 7.713 23.5 12.209 23.5z" clip-rule="evenodd"/>
    <path fill="#FBBC05" fill-rule="evenodd" d="M5.774 14.185c-.23-.69-.361-1.427-.361-2.185s.13-1.495.36-2.185v-2.98H1.933C1.152 8.388.708 10.145.708 12c0 1.856.445 3.612 1.224 5.165l3.842-2.98z" clip-rule="evenodd"/>
    <path fill="#EA4335" fill-rule="evenodd" d="M12.209 5.074c1.688 0 3.204.58 4.396 1.72l3.298-3.299C17.911 1.64 15.308.5 12.209.5 7.713.5 3.824 3.077 1.932 6.835l3.842 2.98c.904-2.718 3.44-4.741 6.435-4.741z" clip-rule="evenodd"/>
</svg>
