<svg xmlns="http://www.w3.org/2000/svg" width="50" height="50" fill="none" viewBox="0 0 50 50">
    <path fill="#FCFDFD" fill-rule="evenodd" d="M15.552 2.22c2.444-.112 3.223-.137 9.448-.137 6.225 0 7.004.027 9.446.138 2.441.11 4.108.5 5.566 1.064 1.527.577 2.913 1.48 4.059 2.646 1.166 1.144 2.066 2.527 2.641 4.056.567 1.459.954 3.125 1.067 5.563.112 2.448.137 3.227.137 9.45 0 6.225-.027 7.004-.137 9.448-.11 2.437-.5 4.104-1.067 5.562-.575 1.53-1.476 2.915-2.642 4.06-1.145 1.167-2.53 2.067-4.058 2.642-1.458.567-3.125.955-5.562 1.067-2.446.113-3.225.138-9.45.138s-7.005-.028-9.448-.138c-2.438-.11-4.104-.5-5.563-1.067-1.53-.575-2.915-1.476-4.06-2.641-1.166-1.145-2.068-2.53-2.644-4.059-.564-1.458-.952-3.125-1.064-5.562-.113-2.448-.138-3.227-.138-9.45 0-6.225.027-7.004.138-9.446.11-2.442.5-4.108 1.064-5.567.577-1.529 1.48-2.914 2.646-4.058 1.144-1.166 2.528-2.068 4.056-2.644 1.458-.564 3.125-.952 5.563-1.064h.002zM34.26 6.347c-2.417-.11-3.142-.134-9.26-.134-6.12 0-6.844.023-9.26.134-2.236.102-3.449.475-4.257.79-1.069.416-1.833.91-2.635 1.712-.76.74-1.346 1.64-1.713 2.635-.314.809-.687 2.021-.79 4.256-.11 2.417-.133 3.142-.133 9.26 0 6.12.023 6.845.134 9.261.102 2.236.475 3.448.79 4.257.366.993.951 1.895 1.712 2.635.74.76 1.641 1.346 2.635 1.712.808.315 2.02.688 4.256.79 2.417.11 3.14.133 9.26.133 6.122 0 6.844-.023 9.261-.133 2.236-.102 3.448-.475 4.256-.79 1.07-.416 1.834-.91 2.636-1.712.76-.74 1.346-1.642 1.712-2.635.315-.809.688-2.021.79-4.257.11-2.416.133-3.141.133-9.26s-.023-6.844-.133-9.26c-.102-2.236-.475-3.448-.79-4.257-.416-1.069-.91-1.833-1.712-2.635-.74-.76-1.64-1.346-2.636-1.713-.808-.314-2.02-.687-4.256-.79zM22.073 32.065c1.634.68 3.454.772 5.15.26 1.694-.513 3.159-1.598 4.143-3.07.983-1.473 1.425-3.24 1.25-5.003-.175-1.762-.956-3.408-2.21-4.658-.8-.8-1.766-1.411-2.83-1.792-1.065-.38-2.2-.52-3.325-.41-1.125.112-2.211.47-3.18 1.052-.97.581-1.799 1.37-2.427 2.31-.628.94-1.04 2.007-1.206 3.125-.166 1.118-.082 2.259.246 3.34.328 1.082.892 2.078 1.65 2.916.76.837 1.695 1.497 2.739 1.93zM16.67 16.67c1.093-1.094 2.392-1.962 3.821-2.554 1.43-.592 2.96-.896 4.508-.896 1.547 0 3.078.304 4.507.896 1.43.592 2.728 1.46 3.822 2.554 1.094 1.094 1.961 2.392 2.553 3.821.592 1.43.897 2.961.897 4.508 0 1.547-.305 3.078-.897 4.508-.592 1.429-1.46 2.727-2.553 3.821-2.21 2.21-5.205 3.45-8.33 3.45-3.123 0-6.12-1.24-8.328-3.45-2.21-2.209-3.45-5.205-3.45-8.33 0-3.123 1.24-6.12 3.45-8.328zm22.72-1.696c.271-.256.488-.563.639-.904.15-.341.23-.71.235-1.082.006-.372-.064-.742-.204-1.087-.14-.346-.348-.66-.611-.923-.264-.263-.578-.471-.923-.611-.345-.14-.715-.21-1.088-.204-.372.005-.74.085-1.08.235-.342.15-.65.367-.905.638-.497.528-.77 1.228-.76 1.952.011.725.304 1.417.816 1.93.513.512 1.205.804 1.93.815.724.01 1.424-.262 1.951-.76z" clip-rule="evenodd"/>
</svg>
