<svg xmlns="http://www.w3.org/2000/svg" width="24" height="24" fill="none" viewBox="0 0 24 24">
    <path fill="#000" d="M2.4 3.6c0-.318.127-.623.352-.849.225-.225.53-.351.848-.351h2.584c.284 0 .559.101.775.285.217.183.362.438.408.718l.888 5.322c.043.254.003.514-.114.743-.117.23-.304.415-.534.53l-1.857.927c.666 1.65 1.658 3.15 2.917 4.409 1.258 1.259 2.758 2.25 4.409 2.917l.928-1.858c.115-.23.3-.417.53-.533.228-.117.488-.157.741-.115l5.322.888c.28.047.535.191.719.408.183.217.284.491.284.775V20.4c0 .318-.126.623-.351.849-.225.225-.53.351-.849.351H18C9.384 21.6 2.4 14.616 2.4 6V3.6z"/>
</svg>
