<svg xmlns="http://www.w3.org/2000/svg" width="24" height="24" fill="none" viewBox="0 0 24 24">
    <path fill="#FCC604" d="M2.4 3.6c0-.318.126-.624.351-.849.226-.225.53-.351.849-.351h2.584c.284 0 .558.1.775.285.217.183.361.438.408.718l.888 5.322c.042.254.002.514-.114.743-.117.229-.304.414-.534.53l-1.858.927c.666 1.65 1.658 3.15 2.917 4.409s2.758 2.25 4.41 2.917l.928-1.858c.115-.23.3-.417.529-.533.228-.117.489-.157.742-.115l5.322.888c.28.047.535.191.718.408.184.216.285.491.285.775V20.4c0 .318-.126.623-.352.848-.225.226-.53.352-.848.352H18C9.384 21.6 2.4 14.616 2.4 6V3.6z"/>
</svg>
