<svg xmlns="http://www.w3.org/2000/svg" width="24" height="24" fill="none" viewBox="0 0 24 24">
    <path fill="#000" fill-rule="evenodd" d="M4.8 4.8c0-.636.252-1.247.703-1.697.45-.45 1.06-.703 1.697-.703h9.6c.636 0 1.247.253 1.697.703.45.45.703 1.06.703 1.697v14.4c.318 0 .623.127.848.352.225.224.352.53.352.848 0 .318-.127.623-.352.849-.225.225-.53.351-.848.351h-3.6c-.319 0-.624-.126-.849-.351-.225-.226-.351-.53-.351-.849V18c0-.318-.127-.623-.352-.849-.225-.224-.53-.351-.848-.351h-2.4c-.319 0-.624.127-.849.351-.225.226-.351.53-.351.849v2.4c0 .318-.127.623-.352.849-.225.225-.53.351-.848.351H4.8c-.319 0-.624-.126-.849-.351-.225-.226-.351-.53-.351-.849 0-.318.126-.623.351-.848.225-.226.53-.352.849-.352V4.8zM8.4 6h2.4v2.4H8.4V6zm2.4 4.8H8.4v2.4h2.4v-2.4zM13.2 6h2.4v2.4h-2.4V6zm2.4 4.8h-2.4v2.4h2.4v-2.4z" clip-rule="evenodd"/>
</svg>
