<svg xmlns="http://www.w3.org/2000/svg" width="24" height="24" fill="none" viewBox="0 0 24 24">
    <path fill="#BDBDBD" d="M12 18.25c4.488 0 8.125-3.637 8.125-8.125C20.125 5.637 16.488 2 12 2c-4.488 0-8.125 3.637-8.125 8.125 0 4.488 3.637 8.125 8.125 8.125zm8.75-2.5h-1.27c-.765 1.016-1.742 1.863-2.851 2.5h2.492c.207 0 .375.14.375.313v.625c0 .171-.168.312-.375.312H4.875c-.207 0-.375-.14-.375-.313v-.625c0-.171.168-.312.375-.312h2.492c-1.11-.637-2.082-1.484-2.851-2.5H3.25C2.559 15.75 2 16.309 2 17v3.75c0 .691.559 1.25 1.25 1.25h17.5c.691 0 1.25-.559 1.25-1.25V17c0-.691-.559-1.25-1.25-1.25z"/>
    <path fill="#FCFDFD" d="M10.368 8.504c0 .436-.24.72-.774.72h-.802v-1.42h.802c.534 0 .774.27.774.7zM7.833 7v4.837h.96V9.952h.451l1.055 1.885h1.11l-1.144-1.961c.767-.208 1.089-.804 1.089-1.393 0-.81-.575-1.483-1.726-1.483H7.833zM13.18 8.552v-.554h-.959v5.669h.96V11.29c.232.312.657.61 1.253.61.972 0 1.733-.797 1.733-1.996 0-1.2-.76-1.968-1.733-1.968-.59 0-1.028.29-1.254.616zm2.007 1.352c0 .727-.486 1.143-1.007 1.143-.514 0-1-.402-1-1.13 0-.727.486-1.13 1-1.13.52 0 1.007.389 1.007 1.117z"/>
</svg>
