<svg xmlns="http://www.w3.org/2000/svg" width="24" height="24" fill="none" viewBox="0 0 24 24">
    <path stroke="#000" stroke-linejoin="round" stroke-width="1.5" d="M19.125 3H4.875c-.696.002-1.362.28-1.854.771-.492.492-.769 1.158-.771 1.854v9c.002.696.28 1.362.771 1.854.492.492 1.158.769 1.854.771H6.75V21l4.393-3.663c.068-.056.153-.087.24-.087h7.742c.696-.002 1.362-.28 1.854-.771.492-.492.769-1.158.771-1.854v-9c-.002-.696-.28-1.362-.771-1.854-.492-.492-1.158-.769-1.854-.771v0z"/>
    <path fill="#000" d="M7.5 11.625c.828 0 1.5-.672 1.5-1.5s-.672-1.5-1.5-1.5-1.5.672-1.5 1.5.672 1.5 1.5 1.5zM12 11.625c.828 0 1.5-.672 1.5-1.5s-.672-1.5-1.5-1.5-1.5.672-1.5 1.5.672 1.5 1.5 1.5zM16.5 11.625c.828 0 1.5-.672 1.5-1.5s-.672-1.5-1.5-1.5-1.5.672-1.5 1.5.672 1.5 1.5 1.5z"/>
</svg>
