<svg xmlns="http://www.w3.org/2000/svg" width="16" height="16" fill="none" viewBox="0 0 16 16">
    <path stroke="#000" stroke-linecap="round" stroke-linejoin="round" stroke-width="1.5" d="M8 5c.5-1.974 2.388-2.982 6.5-3 .066 0 .13.013.192.038.06.025.116.061.162.108.047.046.083.102.108.162.026.061.038.126.038.192v9c0 .133-.053.26-.146.354-.094.093-.221.146-.354.146-4 0-5.545.807-6.5 2-.95-1.188-2.5-2-6.5-2-.309 0-.5-.252-.5-.56V2.5c0-.066.013-.13.038-.192.025-.06.061-.116.108-.162.046-.047.102-.083.162-.108C1.37 2.013 1.434 2 1.5 2c4.112.018 6 1.026 6.5 3zM8 5v9"/>
</svg>
