<svg xmlns="http://www.w3.org/2000/svg" width="211" height="48" fill="none" viewBox="0 0 211 48">
    <path fill="#FCFDFD" d="M55.876 22.698v-.503C55.312 11.191 46.294 2.45 35.27 2.45c-11.399 0-20.605 9.244-20.605 20.688V24.333c0 .189 0 .315.063.503.876 10.627 9.707 18.927 20.542 18.927 11.023 0 20.041-8.677 20.542-19.618v-.504-.44c.063-.125.063-.314.063-.503zm-21.357-9.62c-2.192-.063-4.384-.252-6.388-.692.25-.755.564-1.447.94-2.138 1.503-3.019 3.444-4.842 5.448-5.22v8.05zm1.503-8.05c2.005.378 3.946 2.139 5.45 5.22.312.691.625 1.383.938 2.138-2.004.44-4.196.629-6.388.691V5.03zm-5.448.567C29.509 6.6 28.57 7.92 27.755 9.619c-.375.755-.751 1.572-1.064 2.452-1.629-.44-3.132-.943-4.51-1.635-.313-.125-.563-.314-.814-.44 2.944-3.081 6.89-5.219 11.336-5.848-.752.315-1.44.818-2.13 1.447zm18.6 4.401c-.25.126-.563.315-.814.44-1.315.63-2.88 1.195-4.509 1.635-.313-.88-.689-1.697-1.065-2.452-.814-1.635-1.816-3.018-2.818-4.024-.689-.63-1.378-1.132-2.067-1.447 4.384.566 8.33 2.704 11.273 5.848 0-.063 0-.063 0 0zM34.52 34.016v8.05c-2.004-.378-3.945-2.138-5.448-5.22-.314-.691-.627-1.383-.94-2.137 2.004-.378 4.196-.63 6.388-.692zm1.503 0c2.192.064 4.384.252 6.389.693-.251.754-.564 1.446-.94 2.137-1.503 3.019-3.444 4.842-5.449 5.22v-8.05zM21.743 36.91c.125-.063.313-.125.439-.251 1.315-.629 2.88-1.195 4.509-1.635.313.88.689 1.698 1.064 2.452.815 1.635 1.817 3.019 2.819 4.025.25.188.438.44.689.566-3.633-.755-6.952-2.579-9.52-5.157zm17.474 5.22c.25-.19.438-.378.688-.566 1.065-1.007 2.005-2.327 2.819-4.025.375-.754.751-1.572 1.064-2.452 1.629.44 3.132.943 4.51 1.635.125.063.313.126.438.251-2.505 2.515-5.825 4.34-9.52 5.157z"/>
    <path fill="#050404" d="M22.847 26.241c.376 0 .69-.063.94-.251.25-.126.376-.44.376-.818 0-.377-.126-.943-.439-1.635-.25-.566-.626-1.257-1.127-2.138-.25-.377-.126-.943.313-1.132l1.002-.566c.376-.251.877-.062 1.127.315.439.692.752 1.32 1.065 2.012.376.88.689 1.635.814 2.2.25.818.501 1.321.752 1.636.25.314.563.44.877.44.375 0 .688.126.876.377.188.252.313.503.313.88 0 .378-.125.692-.375.944-.25.251-.564.377-1.002.377-.439 0-.94-.063-1.378-.251-.25-.063-.501-.19-.69-.378-.312-.188-.688-.188-1.001.063-.125.126-.313.189-.501.315-.439.188-1.002.314-1.691.314-.25 0-.564 0-.877-.063-.313-.063-.689-.063-1.002-.126h-.063c-.438-.125-.689-.503-.626-.943l.125-.817c.063-.44.501-.755.94-.692.062 0 .188 0 .25.063.376-.126.752-.126 1.002-.126z"/>
    <path fill="#050404" d="M28.358 27.75l.063-.88c0-.315.188-.566.438-.692.063 0 .126-.063.188-.126.188-.125.376-.377.627-.691.25-.378.5-.818.814-1.51.5-.943 1.002-1.697 1.566-2.137.563-.44 1.127-.692 1.753-.692.689 0 1.253.252 1.628.755.376.503.752 1.194 1.128 2.137.25.63.563 1.195.877 1.635.313.44.689.692 1.127.692.376 0 .689.126.877.377.188.252.313.504.313.88 0 .378-.125.692-.376.944-.25.252-.564.377-1.002.377-.564 0-1.127-.125-1.566-.44-.313-.189-.689-.126-.94.126-.124.063-.187.189-.312.251-.313.189-.69.315-1.128.315-.25 0-.563-.063-.939-.126-.376-.126-.752-.252-1.127-.566-.188-.126-.313-.251-.501-.44-.314-.314-.877-.314-1.19 0-.313.314-.564.503-.814.629-.063.063-.188.063-.251.125-.689.126-1.253-.314-1.253-.943zm4.196-3.018c-.125.252-.062.566.126.817.188.19.376.44.626.63.376.314.689.44 1.065.44.25 0 .438-.064.5-.252.126-.189.126-.44 0-.692-.312-.817-.563-1.383-.688-1.698-.188-.314-.313-.503-.501-.503-.25 0-.439.189-.69.503-.187.252-.312.503-.438.755z"/>
    <path fill="#050404" d="M38.441 27.876l.063-.818c0-.44.313-.754.752-.754.751-.063 1.503-.189 2.317-.44.501-.126 1.002-.315 1.503-.566.689-.315.626-1.384-.125-1.572-.501-.126-1.065-.189-1.566-.189-.313 0-.564 0-.814.063-.438.063-.877-.252-.94-.692l-.187-.943c-.063-.44.25-.88.688-.943h.126c.313-.063.626-.063 1.002-.063.814 0 1.503.126 2.067.314.563.189 1.127.44 1.503.692.438.252.814.503 1.19.692.375.188.688.314 1.064.314h.376c.063 0 .063 0 .125.063l.188 1.51c.063.377-.188.754-.564.88-.187.062-.438.188-.626.314-.438.252-.877.566-1.315.943-.501.377-1.002.692-1.628 1.07-.627.377-1.378.628-2.192.88-.627.188-1.316.251-2.067.314-.564-.126-1.002-.566-.94-1.07zM48.525 28l-.25-4.59c0-.502.375-.88.813-.88h1.002c.438 0 .814.378.814.818l.25 4.59c0 .503-.376.88-.814.88H49.34c-.376 0-.752-.377-.814-.817zM48.963 22.09c-.25.063-.5-.125-.563-.377l-.126-.503c.126 0 .25-.063.313-.063.126 0 .188-.063.25-.063-.187-.125-.312-.251-.375-.44-.125-.188-.125-.377-.125-.629 0-.44.125-.817.438-1.006.313-.188.626-.314 1.002-.314.25 0 .5.063.751.126l-.125.88c-.188-.063-.376-.063-.564-.063-.375 0-.563.126-.563.44 0 .189.063.378.25.503.126.126.313.252.439.315.187-.063.313-.126.438-.126.25-.063.5.063.563.314.063.252-.062.503-.313.566-.25.063-.5.189-.814.252-.25 0-.563.125-.876.188z"/>
    <path fill="#FCFDFD" d="M3.497 9.661l3.846 34.222c0 .236.233.47.583.588l9.092 2c.816.235.7 1.41-.117 1.41L5.361 48c-.349 0-.582-.235-.699-.588L0 11.543c0-.353.233-.588.7-.823l2.097-1.647c.35 0 .7.235.7.588z"/>
    <path fill="#FCFDFD" d="M17.6 44.237l-7.925-1.882c-.233-.118-.466-.235-.583-.588L4.779 2.606 4.663.84c-.117-.47.35-.94.816-.823l2.447.588h.233l9.092 2c.816.235.7 1.41-.116 1.41H8.742l3.73 35.987c0 .235.233.47.466.47l5.246 2.235c.699.47.233 1.764-.583 1.529zM66.672 9.662l-3.73 34.222c0 .236-.233.47-.583.588l-9.091 2c-.816.235-.7 1.41.116 1.41l11.54.118c.35 0 .583-.235.7-.588l4.662-35.75c0-.353-.234-.589-.7-.824l-2.098-1.646c-.466-.118-.7.117-.816.47z"/>
    <path fill="#FCFDFD" d="M52.569 44.237l7.926-1.882c.233-.117.466-.235.582-.588l4.43-39.279.233-1.764c0-.353-.466-.823-1.05-.706l-2.447.588h-.117-.116l-9.092 2c-.816.235-.7 1.41.117 1.41h8.392l-3.73 35.987c0 .235-.233.47-.466.47l-5.245 2.235c-.583.47-.233 1.764.583 1.529zM86.725 7.064h5.452l7.697 33.766H96.24l-1.818-7.8H84.48l-1.817 7.8h-3.635l7.697-33.766zm2.673 4.06l-4.276 18.807h8.552l-4.276-18.807zM110.672 40.936h-3.635V7.064h3.635V22.13h10.263V7.064h3.634V40.83h-3.634V25.336h-10.263v15.6zM138.681 40.936h-3.635V7.064h5.452l5.88 22.332 5.986-22.332h5.452V40.83h-3.634V12.94l-6.094 22.76h-3.421l-6.093-22.76v27.996h.107zM184.436 40.936h-1.604l-1.39-3.313c-.748 1.283-1.71 2.244-2.886 2.992-1.176.748-2.459 1.069-3.956 1.069-5.024 0-7.483-2.458-7.483-7.266v-5.236c0-4.808 2.459-7.266 7.483-7.266h5.987v-8.548c0-1.283-.428-2.244-1.176-2.885-.748-.641-1.924-1.069-3.528-1.069-3.1 0-4.597 1.282-4.597 3.954v3.098h-3.634v-2.885c0-2.35.641-4.167 2.031-5.342 1.39-1.282 3.421-1.924 6.2-1.924 2.78 0 4.918.642 6.308 1.924 1.389 1.282 2.138 3.098 2.138 5.342v27.355h.107zm-3.635-15.921h-5.987c-1.496 0-2.459.32-2.993 1.068-.535.748-.855 1.71-.855 3.099v5.236c0 1.282.32 2.35.855 3.099.534.747 1.603 1.068 2.993 1.068 1.497 0 2.78-.534 4.063-1.71 1.282-1.175 1.924-2.243 1.924-3.312v-8.548zM202.609 40.936h-8.338V7.064h8.338c2.673 0 4.811.641 6.2 1.923 1.39 1.283 2.138 3.1 2.138 5.343v19.234c0 2.35-.641 4.167-2.031 5.342-1.496 1.39-3.528 2.03-6.307 2.03zm4.704-7.372V14.33c0-1.069-.428-2.03-1.176-2.885-.855-.855-1.924-1.282-3.421-1.282h-4.704V37.73h4.704c1.497 0 2.566-.428 3.421-1.175.748-.855 1.176-1.817 1.176-2.992z"/>
</svg>
