<svg xmlns="http://www.w3.org/2000/svg" width="20" height="20" fill="none" viewBox="0 0 20 20">
    <path fill="#000" d="M10 4c-.254 0-.497-.1-.676-.28-.18-.18-.28-.423-.28-.677V.957c0-.254.1-.497.28-.677C9.503.1 9.746 0 10 0c.254 0 .497.1.676.28.18.18.28.423.28.677v2.086c0 .254-.1.497-.28.677-.179.18-.422.28-.676.28zM10 20c-.254 0-.497-.1-.676-.28-.18-.18-.28-.423-.28-.676v-2.088c0-.253.1-.497.28-.676.179-.18.422-.28.676-.28.254 0 .497.1.676.28.18.18.28.423.28.676v2.088c0 .253-.1.497-.28.676-.179.18-.422.28-.676.28zM14.92 6.037c-.19 0-.375-.056-.532-.16-.157-.106-.28-.255-.352-.43-.073-.175-.092-.367-.055-.552.037-.186.128-.356.262-.49l1.475-1.476c.18-.175.422-.273.674-.271.252.002.492.102.67.28.178.178.278.419.28.67.002.252-.096.494-.271.674l-1.476 1.475c-.088.09-.194.16-.31.208-.116.048-.24.073-.366.072zM3.605 17.351c-.189 0-.374-.056-.531-.161-.157-.105-.28-.255-.352-.43-.073-.174-.092-.367-.055-.552.037-.186.128-.356.262-.49l1.476-1.475c.088-.091.194-.163.31-.213.117-.05.242-.076.369-.076.126-.001.252.023.37.071.116.048.223.12.312.209.09.09.16.196.209.313.048.117.072.243.071.37 0 .126-.026.251-.076.368-.05.116-.122.222-.213.31l-1.475 1.476c-.089.089-.194.16-.31.208-.117.048-.241.072-.367.072zM19.044 10.957h-2.088c-.253 0-.497-.101-.676-.28-.18-.18-.28-.423-.28-.677 0-.254.1-.497.28-.676.18-.18.423-.28.676-.28h2.088c.253 0 .497.1.676.28.18.179.28.422.28.676 0 .254-.1.497-.28.676-.18.18-.423.28-.676.28zM3.043 10.957H.957c-.254 0-.497-.101-.677-.28C.1 10.496 0 10.253 0 10c0-.254.1-.497.28-.676.18-.18.423-.28.677-.28h2.086c.254 0 .497.1.677.28.18.179.28.422.28.676 0 .254-.1.497-.28.676-.18.18-.423.28-.677.28zM16.395 17.351c-.126 0-.25-.024-.366-.072-.117-.049-.222-.12-.31-.208l-1.476-1.476c-.176-.18-.273-.422-.272-.674.002-.251.103-.492.28-.67.178-.177.419-.278.67-.28.252-.001.494.096.674.272l1.476 1.475c.134.134.225.304.262.49.037.186.018.378-.054.553-.073.175-.195.324-.353.429-.157.105-.342.161-.531.161zM5.08 6.037c-.125 0-.25-.024-.365-.072-.116-.048-.222-.119-.31-.208L2.929 4.282c-.175-.18-.273-.422-.271-.674.002-.251.102-.492.28-.67.178-.178.419-.279.67-.28.252-.002.494.096.674.271l1.475 1.476c.134.134.225.304.262.49.037.185.018.377-.055.552-.072.175-.195.324-.352.43-.157.104-.342.16-.531.16zM10 14.435c-.877 0-1.735-.26-2.464-.748-.73-.487-1.298-1.18-1.633-1.99-.336-.81-.424-1.702-.253-2.562.172-.86.594-1.65 1.214-2.27.62-.621 1.41-1.043 2.27-1.215.861-.17 1.753-.083 2.563.253.81.335 1.503.904 1.99 1.633.488.73.748 1.587.748 2.464-.002 1.176-.47 2.303-1.3 3.134-.832.832-1.96 1.3-3.135 1.3z"/>
</svg>
