<svg xmlns="http://www.w3.org/2000/svg" width="167" height="38" fill="none" viewBox="0 0 167 38">
    <path fill="#050404" d="M44.235 17.97v-.399c-.447-8.711-7.586-15.63-16.313-15.63-9.023 0-16.312 7.317-16.312 16.377v.946c0 .15 0 .249.05.398.694 8.413 7.685 14.984 16.262 14.984 8.727 0 15.866-6.87 16.263-15.531v-.399-.348c.05-.1.05-.249.05-.398zm-16.907-7.617c-1.736-.05-3.471-.199-5.058-.547.199-.598.447-1.145.744-1.693 1.19-2.39 2.727-3.833 4.314-4.132v6.372zm1.19-6.372c1.586.299 3.123 1.693 4.313 4.132.248.548.496 1.095.744 1.693-1.587.348-3.322.497-5.058.547V3.981zm-4.314.448c-.843.797-1.587 1.842-2.231 3.186-.298.598-.595 1.245-.843 1.942-1.29-.349-2.48-.747-3.57-1.295-.248-.1-.446-.249-.644-.348 2.33-2.44 5.453-4.132 8.974-4.63-.595.25-1.14.647-1.686 1.145zm14.725 3.485c-.198.1-.446.249-.644.348-1.041.498-2.28.946-3.57 1.295-.248-.697-.545-1.344-.843-1.942-.644-1.294-1.438-2.39-2.23-3.186-.546-.498-1.092-.896-1.637-1.145 3.47.448 6.594 2.14 8.924 4.63 0-.05 0-.05 0 0zM27.327 26.93v6.372c-1.586-.298-3.123-1.692-4.313-4.132-.248-.547-.496-1.095-.744-1.692 1.587-.299 3.322-.498 5.058-.548zm1.19 0c1.736.05 3.471.2 5.058.548-.199.597-.447 1.145-.744 1.692-1.19 2.39-2.727 3.834-4.314 4.132V26.93zm-11.304 2.29c.1-.05.248-.1.347-.199 1.041-.498 2.28-.946 3.57-1.294.248.697.545 1.344.843 1.941.644 1.294 1.438 2.39 2.23 3.186.2.15.348.349.546.448-2.875-.597-5.503-2.04-7.536-4.082zm13.833 4.132c.198-.15.347-.299.546-.448.842-.797 1.586-1.842 2.23-3.186.298-.597.596-1.244.843-1.942 1.29.349 2.48.747 3.57 1.295.1.05.248.1.347.199-1.983 1.991-4.61 3.435-7.536 4.082z"/>
    <path fill="#FCC604" d="M18.087 20.774c.298 0 .546-.05.744-.199.198-.1.298-.348.298-.647 0-.299-.1-.747-.348-1.294-.198-.448-.495-.996-.892-1.693-.198-.299-.1-.747.248-.896l.793-.448c.298-.2.694-.05.893.249.347.547.595 1.045.843 1.593.297.697.545 1.294.644 1.742.199.647.397 1.046.595 1.294.198.25.446.349.694.349.298 0 .546.1.694.299.15.199.248.398.248.697 0 .298-.099.547-.297.746-.198.2-.446.299-.793.299-.348 0-.744-.05-1.091-.2-.199-.049-.397-.148-.546-.298-.247-.15-.545-.15-.793.05-.1.1-.248.15-.397.249-.347.15-.793.249-1.338.249-.199 0-.447 0-.694-.05-.248-.05-.546-.05-.794-.1h-.05c-.346-.1-.545-.398-.495-.746l.1-.647c.049-.349.396-.598.743-.548.05 0 .148 0 .198.05.298-.1.595-.1.793-.1z"/>
    <path fill="#FCC604" d="M22.45 21.969l.05-.697c0-.249.149-.448.347-.548.05 0 .1-.05.149-.1.149-.099.297-.298.496-.547.198-.299.396-.647.644-1.195.397-.746.794-1.344 1.24-1.692.446-.349.892-.548 1.388-.548.546 0 .992.2 1.29.598.297.398.594.946.892 1.692.198.498.446.946.694 1.295.248.348.545.547.892.547.298 0 .546.1.694.299.15.199.248.398.248.697 0 .299-.099.547-.297.747-.198.199-.446.298-.793.298-.447 0-.893-.1-1.24-.348-.248-.15-.545-.1-.744.1-.099.05-.148.149-.248.198-.248.15-.545.25-.892.25-.198 0-.446-.05-.744-.1-.297-.1-.595-.2-.892-.448-.149-.1-.248-.2-.397-.349-.248-.249-.694-.249-.942 0-.248.25-.446.399-.645.498-.05.05-.148.05-.198.1-.545.1-.991-.25-.991-.747zm3.323-2.39c-.1.2-.05.448.099.648.148.149.297.348.495.497.298.25.546.349.843.349.199 0 .347-.05.397-.2.1-.149.1-.348 0-.547-.248-.647-.446-1.095-.545-1.344-.15-.249-.248-.398-.397-.398-.198 0-.347.15-.545.398-.15.2-.248.398-.348.597z"/>
    <path fill="#FCC604" d="M30.433 22.068l.05-.647c0-.348.248-.597.595-.597.595-.05 1.19-.15 1.834-.349.397-.1.793-.248 1.19-.448.546-.248.496-1.095-.1-1.244-.396-.1-.842-.15-1.239-.15-.247 0-.446 0-.644.05-.347.05-.694-.199-.744-.547l-.149-.747c-.05-.348.199-.697.546-.747h.099c.248-.05.496-.05.793-.05.645 0 1.19.1 1.636.25.447.149.893.348 1.19.547.347.2.645.398.942.548.298.149.546.248.843.248h.298c.05 0 .05 0 .099.05l.149 1.195c.05.299-.15.597-.447.697-.148.05-.347.15-.495.249-.347.199-.694.448-1.042.747-.396.298-.793.547-1.289.846-.495.299-1.09.498-1.735.697-.496.15-1.041.199-1.636.249-.446-.1-.793-.448-.744-.847zM38.416 22.168l-.199-3.634c0-.398.298-.697.645-.697h.793c.346 0 .644.299.644.647l.198 3.634c0 .399-.297.697-.644.697h-.793c-.297 0-.595-.299-.644-.647zM38.763 17.489c-.199.05-.397-.1-.447-.3l-.099-.397c.1 0 .199-.05.248-.05.1 0 .149-.05.198-.05-.148-.1-.247-.199-.297-.348-.099-.15-.099-.3-.099-.498 0-.349.1-.647.347-.797.248-.149.495-.249.793-.249.198 0 .396.05.595.1l-.1.697c-.148-.05-.297-.05-.446-.05-.297 0-.446.1-.446.349 0 .149.05.298.199.398.099.1.247.199.346.249.15-.05.248-.1.347-.1.199-.05.397.05.446.25.05.198-.05.397-.247.447-.199.05-.397.15-.645.2-.198 0-.446.099-.694.149z"/>
    <path fill="#050404" d="M2.768 7.649L5.813 34.74c0 .187.185.373.462.466l7.197 1.583c.646.186.554 1.117-.092 1.117L4.245 38c-.277 0-.462-.186-.554-.465L0 9.138c0-.279.185-.465.554-.651l1.66-1.304c.277 0 .554.187.554.466z"/>
    <path fill="#050404" d="M13.934 35.02l-6.275-1.489c-.185-.093-.37-.186-.461-.465L3.783 2.063 3.691.666c-.092-.372.277-.745.646-.651L6.275.48h.184l7.198 1.583c.646.186.554 1.117-.092 1.117H6.92l2.953 28.49c0 .185.184.371.369.371l4.152 1.77c.554.372.185 1.396-.461 1.21zM52.782 7.649L49.83 34.74c0 .187-.185.373-.462.466L42.17 36.79c-.645.186-.553 1.117.093 1.117l9.135.093c.277 0 .462-.186.554-.466l3.691-28.302c0-.28-.185-.466-.554-.652l-1.66-1.304c-.37-.093-.554.094-.647.373z"/>
    <path fill="#050404" d="M41.617 35.02l6.275-1.489c.184-.093.37-.186.461-.465L51.86 1.97l.184-1.397c0-.28-.369-.652-.83-.558L49.276.48h-.092-.092l-7.198 1.583c-.646.186-.554 1.117.092 1.117h6.644l-2.953 28.49c0 .185-.184.371-.369.371l-4.152 1.77c-.462.372-.185 1.396.461 1.21zM68.658 5.592h4.316l6.093 26.731H76.19l-1.439-6.175h-7.87l-1.44 6.175h-2.877l6.094-26.73zm2.115 3.215l-3.385 14.888h6.77L70.774 8.807zM87.615 32.408h-2.877V5.592h2.877V17.52h8.125V5.592h2.877v26.731H95.74V20.057h-8.125v12.35zM109.789 32.408h-2.878V5.592h4.317l4.654 17.68 4.74-17.68h4.316v26.731h-2.877V10.245l-4.825 18.018h-2.708l-4.824-18.018v22.163h.085zM146.011 32.408h-1.269l-1.1-2.623c-.593 1.016-1.355 1.777-2.285 2.37-.931.591-1.947.845-3.132.845-3.978 0-5.924-1.946-5.924-5.752v-4.145c0-3.807 1.946-5.753 5.924-5.753h4.74v-6.767c0-1.015-.339-1.776-.931-2.284-.593-.507-1.524-.846-2.793-.846-2.455 0-3.639 1.015-3.639 3.13v2.453h-2.878v-2.284c0-1.86.508-3.299 1.608-4.23C135.432 5.509 137.04 5 139.241 5c2.2 0 3.893.508 4.993 1.523 1.1 1.015 1.693 2.453 1.693 4.23v21.655h.084zm-2.877-12.604h-4.74c-1.184 0-1.946.253-2.369.846-.423.592-.677 1.353-.677 2.453v4.145c0 1.015.254 1.86.677 2.453.423.592 1.269.846 2.369.846 1.185 0 2.201-.423 3.216-1.354 1.016-.93 1.524-1.776 1.524-2.622v-6.767zM160.399 32.408h-6.602V5.592h6.602c2.115 0 3.808.508 4.908 1.523C166.408 8.13 167 9.568 167 11.345V26.57c0 1.861-.508 3.3-1.608 4.23-1.185 1.1-2.793 1.607-4.993 1.607zm3.723-5.837V11.344c0-.845-.338-1.607-.931-2.284-.677-.676-1.523-1.015-2.708-1.015h-3.724V29.87h3.724c1.185 0 2.031-.338 2.708-.93.593-.677.931-1.439.931-2.369z"/>
</svg>
